<svg width="59" height="58" viewBox="0 0 59 58" fill="none" xmlns="http://www.w3.org/2000/svg">
<rect y="0.622314" width="58.2864" height="57.1149" rx="4" fill="#B5F2E3"/>
<g filter="url(#filter0_d_3_4682)">
<path d="M35.9232 23.6687C38.8355 23.6687 41.1975 21.2812 41.1975 18.3375C41.1975 15.3938 38.8355 13 35.9232 13H25.3682C22.4559 13 20.0938 15.3875 20.0938 18.3313C20.0938 21.275 22.4559 23.6625 25.3682 23.6625C22.4559 23.6688 20.0938 26.0562 20.0938 29C20.0938 31.9438 22.4559 34.3312 25.3682 34.3312C22.4559 34.3312 20.0938 36.7188 20.0938 39.6688C20.0938 42.6188 22.4559 45 25.3682 45C28.2806 45 30.6426 42.6125 30.6426 39.6688V23.6687H35.9232ZM35.9232 23.6687C33.0108 23.6687 30.6488 26.0562 30.6488 29C30.6488 31.9438 33.0108 34.3312 35.9232 34.3312C38.8355 34.3312 41.1975 31.9438 41.1975 29C41.1975 26.0562 38.8355 23.6687 35.9232 23.6687Z" fill="white"/>
</g>
<defs>
<filter id="filter0_d_3_4682" x="18.0938" y="13" width="29.1037" height="40" filterUnits="userSpaceOnUse" color-interpolation-filters="sRGB">
<feFlood flood-opacity="0" result="BackgroundImageFix"/>
<feColorMatrix in="SourceAlpha" type="matrix" values="0 0 0 0 0 0 0 0 0 0 0 0 0 0 0 0 0 0 127 0" result="hardAlpha"/>
<feOffset dx="2" dy="4"/>
<feGaussianBlur stdDeviation="2"/>
<feColorMatrix type="matrix" values="0 0 0 0 0.270588 0 0 0 0 0.345098 0 0 0 0 0.501961 0 0 0 0.2 0"/>
<feBlend mode="normal" in2="BackgroundImageFix" result="effect1_dropShadow_3_4682"/>
<feBlend mode="normal" in="SourceGraphic" in2="effect1_dropShadow_3_4682" result="shape"/>
</filter>
</defs>
</svg>
